G04*
G04 #@! TF.GenerationSoftware,Altium Limited,Altium Designer,24.2.2 (26)*
G04*
G04 Layer_Physical_Order=2*
G04 Layer_Color=16711680*
%FSLAX44Y44*%
%MOMM*%
G71*
G04*
G04 #@! TF.SameCoordinates,9CE8878F-EF21-4DC5-BAF5-148F9637E852*
G04*
G04*
G04 #@! TF.FilePolarity,Positive*
G04*
G01*
G75*
%ADD10C,1.5240*%
G36*
X586000Y869100D02*
X1153746Y869100D01*
X1153994Y869149D01*
X1158855Y868670D01*
X1163768Y867180D01*
X1168296Y864760D01*
X1172264Y861503D01*
X1175521Y857534D01*
X1177942Y853006D01*
X1179432Y848093D01*
X1179811Y844247D01*
X1179828Y842984D01*
X1179898Y841729D01*
X1180261Y835267D01*
X1181555Y827648D01*
X1183695Y820222D01*
X1186653Y813081D01*
X1190391Y806317D01*
X1194863Y800014D01*
X1200013Y794251D01*
X1205776Y789101D01*
X1212079Y784629D01*
X1218844Y780891D01*
X1225984Y777933D01*
X1233410Y775793D01*
X1241030Y774499D01*
X1248746Y774065D01*
Y774099D01*
X1248747Y774099D01*
X1338746D01*
X1338994Y774149D01*
X1343855Y773670D01*
X1348768Y772180D01*
X1353296Y769760D01*
X1357264Y766503D01*
X1360521Y762534D01*
X1362941Y758006D01*
X1364432Y753093D01*
X1364911Y748232D01*
X1364861Y747984D01*
Y442985D01*
X1364911Y442736D01*
X1364432Y437875D01*
X1362941Y432962D01*
X1360521Y428435D01*
X1357264Y424466D01*
X1353296Y421209D01*
X1348768Y418789D01*
X1343855Y417299D01*
X1338994Y416820D01*
X1338746Y416869D01*
X1036328D01*
X1036250Y416885D01*
Y416911D01*
X1029094Y416509D01*
X1022029Y415308D01*
X1015142Y413324D01*
X1008520Y410581D01*
X1002248Y407115D01*
X996403Y402967D01*
X991058Y398192D01*
X986283Y392848D01*
X982135Y387002D01*
X978669Y380730D01*
X975926Y374108D01*
X973942Y367221D01*
X972741Y360156D01*
X972339Y353000D01*
X972339D01*
X972315Y351740D01*
X971936Y347891D01*
X970446Y342978D01*
X968026Y338450D01*
X964769Y334482D01*
X960800Y331225D01*
X956272Y328804D01*
X951359Y327314D01*
X947500Y326934D01*
X946250Y326885D01*
Y326885D01*
X946168Y326868D01*
X533746D01*
X533498Y326819D01*
X528636Y327298D01*
X523723Y328788D01*
X519196Y331208D01*
X515227Y334465D01*
X511970Y338434D01*
X509550Y342962D01*
X508060Y347874D01*
X507681Y351721D01*
X507664Y352984D01*
X507593Y354239D01*
X507230Y360701D01*
X505936Y368320D01*
X503796Y375746D01*
X500839Y382887D01*
X497100Y389651D01*
X492628Y395954D01*
X487478Y401717D01*
X481715Y406867D01*
X475412Y411339D01*
X468648Y415078D01*
X461508Y418035D01*
X454081Y420175D01*
X446462Y421469D01*
X438745Y421903D01*
Y421869D01*
X438744Y421869D01*
X348746D01*
X348498Y421819D01*
X343636Y422298D01*
X338723Y423788D01*
X334196Y426208D01*
X330227Y429465D01*
X326970Y433434D01*
X324550Y437962D01*
X323060Y442875D01*
X322581Y447735D01*
X322631Y447984D01*
Y752984D01*
X322581Y753232D01*
X323060Y758093D01*
X324550Y763006D01*
X326970Y767533D01*
X330227Y771502D01*
X334196Y774759D01*
X338724Y777179D01*
X343637Y778670D01*
X348498Y779148D01*
X348746Y779099D01*
X495984D01*
X495987Y779100D01*
X496000Y779089D01*
Y779089D01*
X503155Y779491D01*
X510221Y780691D01*
X517108Y782675D01*
X523730Y785418D01*
X530002Y788885D01*
X535847Y793032D01*
X541191Y797808D01*
X545967Y803152D01*
X550114Y808997D01*
X553581Y815270D01*
X556324Y821891D01*
X558308Y828778D01*
X559508Y835844D01*
X559840Y841748D01*
X559910Y843000D01*
X559935Y844259D01*
X560314Y848109D01*
X561804Y853022D01*
X564225Y857550D01*
X567481Y861518D01*
X571450Y864775D01*
X575978Y867196D01*
X580891Y868686D01*
X585699Y869159D01*
X586000Y869100D01*
D02*
G37*
%LPC*%
G36*
X1320824Y759081D02*
X1316680D01*
X1312615Y758273D01*
X1308786Y756686D01*
X1305340Y754384D01*
X1302409Y751453D01*
X1300107Y748007D01*
X1298521Y744178D01*
X1297712Y740113D01*
Y735969D01*
X1298521Y731904D01*
X1300107Y728075D01*
X1302409Y724629D01*
X1305340Y721698D01*
X1308786Y719396D01*
X1312615Y717810D01*
X1316680Y717001D01*
X1320824D01*
X1324889Y717810D01*
X1328718Y719396D01*
X1332164Y721698D01*
X1335095Y724629D01*
X1337398Y728075D01*
X1338984Y731904D01*
X1339792Y735969D01*
Y740113D01*
X1338984Y744178D01*
X1337398Y748007D01*
X1335095Y751453D01*
X1332164Y754384D01*
X1328718Y756686D01*
X1324889Y758273D01*
X1320824Y759081D01*
D02*
G37*
G36*
X370818Y759024D02*
X366674D01*
X362609Y758215D01*
X358780Y756629D01*
X355334Y754327D01*
X352403Y751396D01*
X350101Y747950D01*
X348515Y744121D01*
X347706Y740056D01*
Y735912D01*
X348515Y731847D01*
X350101Y728018D01*
X352403Y724572D01*
X355334Y721641D01*
X358780Y719339D01*
X362609Y717753D01*
X366674Y716944D01*
X370818D01*
X374883Y717753D01*
X378712Y719339D01*
X382158Y721641D01*
X385089Y724572D01*
X387391Y728018D01*
X388977Y731847D01*
X389786Y735912D01*
Y740056D01*
X388977Y744121D01*
X387391Y747950D01*
X385089Y751396D01*
X382158Y754327D01*
X378712Y756629D01*
X374883Y758215D01*
X370818Y759024D01*
D02*
G37*
G36*
X1320824Y479081D02*
X1316680D01*
X1312615Y478273D01*
X1308786Y476687D01*
X1305340Y474384D01*
X1302409Y471453D01*
X1300107Y468007D01*
X1298521Y464178D01*
X1297712Y460113D01*
Y455969D01*
X1298521Y451904D01*
X1300107Y448075D01*
X1302409Y444629D01*
X1305340Y441698D01*
X1308786Y439396D01*
X1312615Y437810D01*
X1316680Y437001D01*
X1320824D01*
X1324889Y437810D01*
X1328718Y439396D01*
X1332164Y441698D01*
X1335095Y444629D01*
X1337398Y448075D01*
X1338984Y451904D01*
X1339792Y455969D01*
Y460113D01*
X1338984Y464178D01*
X1337398Y468007D01*
X1335095Y471453D01*
X1332164Y474384D01*
X1328718Y476687D01*
X1324889Y478273D01*
X1320824Y479081D01*
D02*
G37*
G36*
X370818Y479024D02*
X366674D01*
X362609Y478215D01*
X358780Y476629D01*
X355334Y474327D01*
X352403Y471396D01*
X350101Y467950D01*
X348515Y464121D01*
X347706Y460056D01*
Y455912D01*
X348515Y451847D01*
X350101Y448018D01*
X352403Y444572D01*
X355334Y441641D01*
X358780Y439338D01*
X362609Y437752D01*
X366674Y436944D01*
X370818D01*
X374883Y437752D01*
X378712Y439338D01*
X382158Y441641D01*
X385089Y444572D01*
X387391Y448018D01*
X388977Y451847D01*
X389786Y455912D01*
Y460056D01*
X388977Y464121D01*
X387391Y467950D01*
X385089Y471396D01*
X382158Y474327D01*
X378712Y476629D01*
X374883Y478215D01*
X370818Y479024D01*
D02*
G37*
%LPD*%
D10*
X1318752Y458041D02*
D03*
Y738041D02*
D03*
X368746Y737984D02*
D03*
Y457984D02*
D03*
M02*
